<?xml version="1.0" encoding="iso-8859-1"?>
<!DOCTYPE svg PUBLIC "-//W3C//DTD SVG 1.1//EN" "http://www.w3.org/Graphics/SVG/1.1/DTD/svg11.dtd">
<svg 
 version="1.1" xmlns="http://www.w3.org/2000/svg" xmlns:xlink="http://www.w3.org/1999/xlink" x="0px" y="0px" width="512px"
	 height="512px" viewBox="0 0 512 512" enable-background="new 0 0 512 512" xml:space="preserve"
><g id="1b1c9b208ed950244c86edd4d203a501"><g></g><g fill="#000000"><path display="inline" d="M314.962,79.115V39.808c0-21.619,17.688-39.308,39.308-39.308s39.308,17.688,39.308,39.308v1.67v37.638
		c0,21.62-17.688,39.308-39.308,39.308S314.962,100.735,314.962,79.115z M157.731,118.423c21.619,0,39.308-17.688,39.308-39.308
		V39.808c0-21.619-17.688-39.308-39.308-39.308c-21.62,0-39.309,17.688-39.309,39.308v1.67v37.638
		C118.423,100.735,136.111,118.423,157.731,118.423z M491.846,157.731v235.846c0,65.022-52.899,117.923-117.923,117.923H138.077
		c-65.022,0-117.923-52.9-117.923-117.923V157.731c0-51.242,32.864-94.936,78.615-111.162v32.546
		c0,32.512,26.45,58.962,58.962,58.962c32.511,0,58.961-26.45,58.961-58.962V39.808h78.615v39.308
		c0,32.512,26.448,58.962,58.962,58.962c32.513,0,58.961-26.45,58.961-58.962V46.569
		C458.979,62.795,491.846,106.489,491.846,157.731z M432.885,177.385H79.115v216.192c0,32.429,26.533,58.961,58.962,58.961h235.846
		c32.429,0,58.962-26.532,58.962-58.961V177.385z M143.159,389.293c3.202,2.004,6.434,3.002,9.708,3.002h75.948
		c2.702,0,5.047-1.493,7.04-4.479c1.988-2.986,2.986-6.399,2.986-10.238c0-3.842-1.002-7.182-3.006-10.03
		c-2.008-2.844-4.368-4.265-7.082-4.265h-56.26v-1.942c0-3.447,2.304-7.225,6.91-11.324c4.613-4.092,10.168-8.299,16.675-12.613
		c6.499-4.314,12.967-9.063,19.396-14.241c6.43-5.171,11.931-11.57,16.506-19.193c4.572-7.616,6.86-15.746,6.86-24.372
		c0-13.231-4.998-23.749-14.998-31.549c-10.003-7.8-21.643-11.7-34.928-11.7c-12.886,0-24.106,3.731-33.665,11.201
		c-9.554,7.462-14.333,17.385-14.333,29.757c0,11.523,4.909,17.281,14.736,17.281c5.193,0,9.37-1.251,12.529-3.762
		c3.155-2.511,4.737-5.463,4.737-8.859c0-5.758,1.512-9.962,4.541-12.622c3.024-2.656,6.913-3.984,11.673-3.984
		c5.474,0,9.581,1.547,12.318,4.638c2.737,3.094,4.107,6.648,4.107,10.679c0,5.028-2.346,10.207-7.024,15.531
		c-4.688,5.316-10.411,10.426-17.186,15.309l-19.585,14.671c-6.469,4.867-11.992,10.372-16.557,16.525
		c-4.567,6.153-6.848,12.307-6.848,18.46v20.821C138.361,384.855,139.962,387.289,143.159,389.293z M336.009,360.188
		c-2.898,2.917-7.957,4.376-15.17,4.376c-12.587,0-18.883-4.127-18.883-12.376c0-4.122-1.179-7.001-3.543-8.641
		c-2.364-1.632-6.909-2.453-13.643-2.453c-6.008,0-10.161,0.853-12.444,2.557c-2.292,1.712-3.433,4.91-3.433,9.604
		c0,10.384,4.272,19.7,12.825,27.945c8.553,8.253,21.239,12.376,38.061,12.376c16.18,0,29.2-3.912,39.062-11.735
		c9.865-7.819,14.798-19.979,14.798-36.479v-4.054c0-15.504-7.224-25.956-21.673-31.361c5.159-2.399,9.209-6.768,12.149-13.112
		c2.937-6.346,4.407-13.535,4.407-21.573c0-25.942-15.896-38.917-47.684-38.917c-16.676,0-28.971,3.877-36.878,11.624
		c-7.916,7.754-11.869,16.609-11.869,26.563c0,5.404,1.036,8.998,3.113,10.771c2.076,1.78,6.84,2.667,14.291,2.667
		c5.865,0,9.938-1.009,12.229-3.036c2.288-2.022,3.432-4.99,3.432-8.897c0-3.908,1.271-6.664,3.816-8.269
		c2.537-1.604,6.498-2.411,11.865-2.411c10.452,0,15.681,5.06,15.681,15.171c0,4.068-0.461,7.4-1.374,9.999
		c-0.918,2.599-2.258,4.426-4.023,5.478c-1.762,1.053-3.455,1.759-5.074,2.107c-1.624,0.354-3.636,0.526-6.031,0.526
		c-6.353,0-9.523,4.269-9.523,12.798c0,8.537,3.167,12.806,9.501,12.806c6.645,0,11.696,1.171,15.166,3.517
		c3.467,2.349,5.202,6.863,5.202,13.55v4.054C340.362,352.331,338.907,357.275,336.009,360.188z"></path></g></g></svg>