<?xml version="1.0" encoding="iso-8859-1"?>
<!DOCTYPE svg PUBLIC "-//W3C//DTD SVG 1.1//EN" "http://www.w3.org/Graphics/SVG/1.1/DTD/svg11.dtd">
<svg 
 version="1.1" xmlns="http://www.w3.org/2000/svg" xmlns:xlink="http://www.w3.org/1999/xlink" x="0px" y="0px" width="512px"
	 height="512px" viewBox="0 0 512 512" style="enable-background:new 0 0 512 512;" xml:space="preserve"
><g fill="#ffffff" id="afcae5a789ccd549f9c6e2a2f812a0c2"><g></g><path style="display: inline;" d="M22.268,415.688h88.896v42.583c0,11.711-12.6,21.292-27.999,21.292H50.263
		c-15.395,0-27.995-9.581-27.995-21.292V415.688z M405.516,458.271c0,11.711,12.601,21.292,27.995,21.292h32.902
		c15.403,0,28.004-9.581,28.004-21.292v-42.583h-88.901V458.271z M511.5,243.358v151.038H0.5V243.358
		c0-23.42,19.163-42.583,42.583-42.583h42.583V75.021c0-23.421,19.163-42.583,42.583-42.583h255.5
		c23.421,0,42.583,19.163,42.583,42.583v125.754h42.584C492.338,200.775,511.5,219.938,511.5,243.358z M128.25,200.775h255.533
		L383.75,75.038c0,0.008-0.008,0.017-0.013,0.017c-0.017,0-0.037-0.017-0.063-0.033H128.267c0.042,0.008-0.029,0.079-0.05,0.125
		L128.25,200.775z M106.958,319.875c0-17.641-14.297-31.938-31.938-31.938c-17.641,0-31.938,14.297-31.938,31.938
		s14.297,31.938,31.938,31.938C92.661,351.813,106.958,337.516,106.958,319.875z M468.917,319.875
		c0-17.641-14.297-31.938-31.938-31.938s-31.938,14.297-31.938,31.938s14.297,31.938,31.938,31.938S468.917,337.516,468.917,319.875
		z"></path></g></svg>